<svg xmlns="http://www.w3.org/2000/svg" viewBox="0 0 67.27 68.45">
<defs>
<style>
    .inner, .star123 {fill:#fff;}
    
    .star123 {stroke:#85cee0;
                stroke-linecap:round;
                stroke-miterlimit:10;
                stroke-width:3px;}
</style>
</defs>
<title>starr1</title>
    <g id="Layer_2" data-name="Layer 2">
    <g id="starr1">
        <polyline class="inner" points="26.8 56.83 45.8 42.26 49.16 20.41 25.69 18.33 11.16 37.06"/>
        <path class="star123" d="M45.3,42.87c2.17,18.23.56,23.25-1.62,24-1.39.47-3.25-.86-7-3.51a54.68,54.68,0,0,1-9.08-8.16"/>
        <path class="star123" d="M26.4,19.89C35.52,4,39.8.88,42,1.59c1.39.45,2.1,2.63,3.51,7a54.36,54.36,0,0,1,2.43,12"/>
        <path class="star123" d="M26.49,19.2c-18.18-2.56-23.23-1.05-24,1.11-.5,1.38.79,3.27,3.36,7.05a54.2,54.2,0,0,0,8,9.25"/>
        <path class="star123" d="M44.92,41.38c17.33-6.05,21.13-9.7,20.84-12-.19-1.45-2.2-2.55-6.22-4.73A54.09,54.09,0,0,0,48.22,20.1"/>
        <path class="star123" d="M13.41,36.81a54,54,0,0,0-8.24,9c-2.69,3.7-4,5.56-3.58,6.95.71,2.18,5.71,3.84,24,1.84"/>
    </g>
    </g>
</svg>