<svg xmlns="http://www.w3.org/2000/svg" viewBox="0 0 67.27 68.45">
<defs>
<style>
    .inner, .star123 {fill:#fff;}
    
    .star123 {stroke:#85cee0;
                stroke-linecap:round;
                stroke-miterlimit:10;
                stroke-width:3px;}
</style>
</defs>
<title>starr2</title>
    <g id="Layer_2" data-name="Layer 2">
    <g id="starr2">
        <polyline class="inner" points="40.47 56.83 21.47 42.26 18.11 20.41 41.58 18.33 56.11 37.06"/>
        <path class="cls-2" d="M22,42.87c-2.17,18.23-.56,23.25,1.63,24,1.38.47,3.24-.86,7-3.51a54.68,54.68,0,0,0,9.08-8.16"/>
        <path class="cls-2" d="M40.87,19.89C31.75,4,27.47.88,25.28,1.59c-1.39.45-2.1,2.63-3.51,7a54.36,54.36,0,0,0-2.43,12"/>
        <path class="cls-2" d="M40.78,19.2C59,16.64,64,18.15,64.79,20.31c.5,1.38-.79,3.27-3.36,7.05a54.2,54.2,0,0,1-8,9.25"/>
        <path class="cls-2" d="M22.36,41.38C5,35.33,1.22,31.68,1.52,29.4,1.7,28,3.71,26.85,7.74,24.67A54,54,0,0,1,19.05,20.1"/>
        <path class="cls-2" d="M53.86,36.81a54.38,54.38,0,0,1,8.25,9c2.68,3.7,4,5.56,3.57,6.95C65,54.94,60,56.6,41.71,54.6"/>
    </g>
    </g>
</svg>