<svg xmlns="http://www.w3.org/2000/svg" viewBox="0 0 67.27 68.45">
<defs>
<style>
    .inner, .star123 {fill:#fff;}
    
    .star123 {stroke:#85cee0;
                stroke-linecap:round;
                stroke-miterlimit:10;
                stroke-width:3px;}
</style>
</defs>
<title>starl2</title>
    <g id="Layer_2" data-name="Layer 2">
    <g id="starl2">
        <polyline class="cls-1" points="26.8 11.62 45.8 26.18 49.16 48.04 25.69 50.12 11.16 31.39"/>
        <path class="cls-2" d="M45.3,25.58c2.17-18.24.56-23.25-1.62-24-1.39-.46-3.25.86-7,3.52a54.24,54.24,0,0,0-9.08,8.16"/>
        <path class="cls-2" d="M26.4,48.56C35.52,64.5,39.8,67.56,42,66.85c1.39-.45,2.1-2.62,3.51-7a54.14,54.14,0,0,0,2.43-12"/>
        <path class="cls-2" d="M26.49,49.25c-18.18,2.56-23.23,1-24-1.12-.5-1.37.79-3.26,3.36-7.05a54.07,54.07,0,0,1,8-9.24"/>
        <path class="cls-2" d="M44.92,27.06c17.33,6.06,21.13,9.71,20.84,12-.19,1.45-2.2,2.54-6.22,4.72a53.66,53.66,0,0,1-11.32,4.58"/>
        <path class="cls-2" d="M13.41,31.64a54.09,54.09,0,0,1-8.24-9c-2.69-3.7-4-5.55-3.58-6.94.71-2.19,5.71-3.85,24-1.84"/>
    </g>
    </g>
</svg>