<svg xmlns="http://www.w3.org/2000/svg" viewBox="0 0 67.27 68.45"><defs><style>.cls-1,.cls-2{fill:#fff;}.cls-2{stroke:#85cee0;stroke-linecap:round;stroke-miterlimit:10;stroke-width:3px;}</style></defs><title>starl3</title><g id="Layer_2" data-name="Layer 2"><g id="starl3"><polyline class="cls-1" points="40.47 11.62 21.47 26.18 18.11 48.04 41.58 50.12 56.11 31.39"/><path class="cls-2" d="M22,25.58c-2.17-18.24-.56-23.25,1.63-24,1.38-.46,3.24.86,7,3.52a54.24,54.24,0,0,1,9.08,8.16"/><path class="cls-2" d="M40.87,48.56c-9.12,15.94-13.4,19-15.59,18.29-1.39-.45-2.1-2.62-3.51-7a54.14,54.14,0,0,1-2.43-12"/><path class="cls-2" d="M40.78,49.25c18.19,2.56,23.23,1,24-1.12.5-1.37-.79-3.26-3.36-7.05a54.07,54.07,0,0,0-8-9.24"/><path class="cls-2" d="M22.36,27.06C5,33.12,1.22,36.77,1.52,39.05c.18,1.45,2.19,2.54,6.22,4.72a53.62,53.62,0,0,0,11.31,4.58"/><path class="cls-2" d="M53.86,31.64a54.51,54.51,0,0,0,8.25-9c2.68-3.7,4-5.55,3.57-6.94-.71-2.19-5.71-3.85-24-1.84"/></g></g></svg>