<svg xmlns="http://www.w3.org/2000/svg" viewBox="0 0 228.27 369.28">
<defs>
<style>
.rabbit {fill:#fff;
        stroke:#85cee0;
        stroke-linecap:round;
        stroke-miterlimit:10;
        stroke-width:3px;}

.eye {fill:#9f86db;}
</style>
</defs>
<title>bunnyrabbit</title>
    <g id="Layer_2" data-name="Layer 2">
    <g id="rabbit">
        <path class="rabbit" d="M165,318.28c-14.6-10.53-32.62-12.64-46-5-14.86,8.49-23.88,28.91-18,39,1.92,3.32,6.45,7.23,12,7,6.59-.27,10.52-6.25,11-7"/>
        <path class="rabbit" d="M122,352.28c.29,1.11,2.9,10.42,12,14,1.38.55,9.13,3.6,16-1s7-13,7-14a18.07,18.07,0,0,0-4-11"/>
        <path class="rabbit" d="M153,340.28c1,.19,8.64,1.62,13-3,4.8-5.09,2.38-14.16-1-19-9.18-13.11-33.92-7.27-35-7-12.89,3.21-26.29,12.67-30,26-.89,3.18-2.71,9.7,1,15,.4.59,4.45,6.9,12,7a15,15,0,0,0,11-5"/>
        <path class="rabbit" d="M52.58,94.25C48.72,92.45,19.94,78.5,6.22,46.6.55,33.4,1.18,25.81,2.1,21.44,2.61,19,4.83,8.44,12.73,3.8c14-8.2,35.83,7.9,40.62,11.43C77.87,33.28,83.71,60,87.23,76.46c3.73,17.44.67,21.5-.91,23C78.88,106.52,60.73,98.05,52.58,94.25Z"/>
        <path class="rabbit" d="M169.1,99.57c-1.42-4-11.64-34.32,1.5-66.47,5.44-13.3,11.3-18.16,15.06-20.57,2.08-1.33,11.18-7.16,20-4.78,15.63,4.2,19.48,31.1,20.32,37,4.31,30.14-10.68,53-19.94,67.07-9.82,14.89-14.87,15.55-17,15.47C178.78,126.93,172.1,108,169.1,99.57Z"/>
        <path class="rabbit" d="M38,282.28c1.05-7.28-2.06-13.91-7-16-7-2.94-15.44,4.11-18,11-2.87,7.7,1.56,15.28,2,16,7.16,11.86,29.64,14.62,56,8"/>
        <ellipse class="rabbit" cx="93.04" cy="268.78" rx="60.5" ry="55" transform="translate(-189.72 237.94) rotate(-64.68)"/>
        <path class="rabbit" d="M71,304.56c1.14-7.85-2.21-15-7.53-17.22-7.52-3.18-16.61,4.42-19.37,11.83-3.09,8.28,1.68,16.44,2.15,17.22,7.71,12.77,31.9,15.73,60.27,8.61"/>
        <path class="rabbit" d="M66.15,260.28c-3,7.94-.42,16,4.42,18.76,6,3.41,17.11-.24,21-11"/>
        <path class="rabbit" d="M47,217.28c-27,34-16.39,48.5-12,51,5.4,3.09,15.5-.21,19-10"/>
        <circle class="rabbit" cx="106.54" cy="159.78" r="98.5"/>
        <path class="rabbit" d="M76.54,171.78s4.5,35.5,22,4"/>
        <circle class="eye" cx="38.54" cy="148.78" r="3.5"/>
        <circle class="eye" cx="155.04" cy="175.28" r="3.5"/>
    </g></g>
</svg>