<svg xmlns="http://www.w3.org/2000/svg" viewBox="0 0 72.93 62.07">
<defs>
<style>
    .rabbit {fill:#fff;
                stroke:#85cee0;
                stroke-linecap:round;
                stroke-miterlimit:10;
                stroke-width:3px;}
</style>
</defs>
<title>rabtail</title>
    <g id="Layer_2" data-name="Layer 2">
    <g id="rabtail">
        <path class="cls-1" d="M67.73,11.08c-14.59-10.54-32.61-12.65-46-5-14.85,8.48-23.87,28.9-18,39,1.93,3.31,6.46,7.23,12,7,6.6-.28,10.53-6.25,11-7"/>
        <path class="cls-1" d="M24.73,45.08c.29,1.11,2.91,10.41,12,14,1.39.54,9.13,3.59,16-1s7-13,7-14a17.89,17.89,0,0,0-4-11"/>
        <path class="cls-1" d="M55.73,33.08c1,.19,8.64,1.62,13-3,4.81-5.09,2.39-14.16-1-19-9.17-13.12-33.92-7.27-35-7-12.88,3.2-26.28,12.66-30,26-.88,3.18-2.7,9.7,1,15,.41.58,4.46,6.89,12,7a15,15,0,0,0,11-5"/>
    </g>
    </g>
</svg>