<svg xmlns="http://www.w3.org/2000/svg" viewBox="0 0 1027 1027"><defs><style>.cls-1{stroke:#fff;}.cls-1,.cls-2{stroke-miterlimit:10;stroke-width:3px;}.cls-2{fill:none;stroke:#9f86db;stroke-linecap:round;}.cls-3{fill:#9f86db;}</style></defs><title>starb_1</title><g id="Layer_2" data-name="Layer 2"><g id="Layer_17" data-name="Layer 17"><rect class="cls-1" x="1.5" y="1.5" width="1024" height="1024"/></g><g id="starb"><line class="cls-2" x1="348" y1="902.5" x2="291.5" y2="959"/><line class="cls-2" x1="457" y1="60.5" x2="400.5" y2="117"/><line class="cls-2" x1="959" y1="89.5" x2="902.5" y2="146"/><circle class="cls-3" cx="129" cy="601.5" r="8.5"/><circle class="cls-3" cx="156" cy="854.5" r="8.5"/><circle class="cls-3" cx="759" cy="965.5" r="8.5"/><circle class="cls-3" cx="972" cy="702.5" r="8.5"/><circle class="cls-3" cx="861" cy="302.5" r="8.5"/><circle class="cls-3" cx="820" cy="77.5" r="8.5"/><circle class="cls-3" cx="333" cy="67.5" r="8.5"/><circle class="cls-3" cx="167" cy="349.5" r="8.5"/><circle class="cls-3" cx="747" cy="619.5" r="3.5"/><circle class="cls-3" cx="905" cy="350.5" r="3.5"/><circle class="cls-3" cx="163" cy="722.5" r="3.5"/><line class="cls-2" x1="480" y1="917.5" x2="469" y2="917.5"/><line class="cls-2" x1="508" y1="917.5" x2="497" y2="917.5"/><line class="cls-2" x1="489" y1="926.5" x2="489" y2="937.5"/><line class="cls-2" x1="489" y1="898.5" x2="489" y2="909.5"/><line class="cls-2" x1="200" y1="470.5" x2="189" y2="470.5"/><line class="cls-2" x1="228" y1="470.5" x2="217" y2="470.5"/><line class="cls-2" x1="209" y1="479.5" x2="209" y2="490.5"/><line class="cls-2" x1="209" y1="451.5" x2="209" y2="462.5"/><line class="cls-2" x1="738" y1="201.5" x2="727" y2="201.5"/><line class="cls-2" x1="766" y1="201.5" x2="755" y2="201.5"/><line class="cls-2" x1="747" y1="210.5" x2="747" y2="221.5"/><line class="cls-2" x1="747" y1="182.5" x2="747" y2="193.5"/></g></g></svg>