<svg xmlns="http://www.w3.org/2000/svg" viewBox="0 0 1027 1027">
<defs>
<style>
    .cls-1  {stroke:#fff;}

    .cls-1, .cls-2 {stroke-miterlimit:10;
                    stroke-width:3px;}

    .cls-2 {fill:none;
            stroke:#dbdd85;
            stroke-linecap:round;}
    
    .cls-3{fill:#dbdd85;}
</style>
</defs>
<title>stara_1</title>
    <g id="Layer_2" data-name="Layer 2">
    <g id="Layer_17" data-name="Layer 17">
    <rect class="cls-1" x="1.5" y="1.5" width="1024" height="1024"/>
    </g>
    
    <g id="stara">
    <line class="cls-2" x1="973" y1="281.5" x2="916.5" y2="338"/>
    <line class="cls-2" x1="814" y1="551.5" x2="757.5" y2="608"/>
    <line class="cls-2" x1="231" y1="653.5" x2="174.5" y2="710"/>
    <circle class="cls-3" cx="646" cy="674.5" r="8.5"/>
    <circle class="cls-3" cx="1004" cy="794.5" r="8.5"/>
    <circle class="cls-3" cx="711" cy="871.5" r="8.5"/>
    <circle class="cls-3" cx="336" cy="708.5" r="8.5"/>
    <circle class="cls-3" cx="69" cy="783.5" r="8.5"/>
    <circle class="cls-3" cx="70" cy="292.5" r="8.5"/>
    <circle class="cls-3" cx="712" cy="234.5" r="8.5"/>
    <circle class="cls-3" cx="957" cy="187.5" r="8.5"/>
    <circle class="cls-3" cx="343" cy="212.5" r="8.5"/>
    <circle class="cls-3" cx="270" cy="497.5" r="8.5"/>
    <circle class="cls-3" cx="746" cy="202.5" r="3.5"/>
    <circle class="cls-3" cx="488" cy="917.5" r="3.5"/>
    <circle class="cls-3" cx="208" cy="471.5" r="3.5"/>
    <line class="cls-2" x1="881" y1="158.5" x2="870" y2="158.5"/><line class="cls-2" x1="909" y1="158.5" x2="898" y2="158.5"/><line class="cls-2" x1="890" y1="167.5" x2="890" y2="178.5"/><line class="cls-2" x1="890" y1="139.5" x2="890" y2="150.5"/><line class="cls-2" x1="378" y1="129.5" x2="367" y2="129.5"/><line class="cls-2" x1="406" y1="129.5" x2="395" y2="129.5"/><line class="cls-2" x1="387" y1="138.5" x2="387" y2="149.5"/><line class="cls-2" x1="387" y1="110.5" x2="387" y2="121.5"/><line class="cls-2" x1="270" y1="971.5" x2="259" y2="971.5"/><line class="cls-2" x1="298" y1="971.5" x2="287" y2="971.5"/><line class="cls-2" x1="279" y1="980.5" x2="279" y2="991.5"/><line class="cls-2" x1="279" y1="952.5" x2="279" y2="963.5"/></g></g></svg>