<svg xmlns="http://www.w3.org/2000/svg" viewBox="0 0 1027 1027"><defs><style>.cls-1{stroke:#fff;}.cls-1,.cls-2{stroke-miterlimit:10;stroke-width:3px;}.cls-2{fill:none;stroke:#86db8c;stroke-linecap:round;}.cls-3{fill:#86db8c;}</style></defs><title>starc_1</title><g id="Layer_2" data-name="Layer 2"><g id="Layer_17" data-name="Layer 17"><rect class="cls-1" x="1.5" y="1.5" width="1024" height="1024"/></g><g id="starc"><line class="cls-2" x1="277" y1="402.5" x2="220.5" y2="459"/><line class="cls-2" x1="558" y1="847.5" x2="501.5" y2="904"/><line class="cls-2" x1="814" y1="133.5" x2="757.5" y2="190"/><circle class="cls-3" cx="327" cy="639.5" r="8.5"/><circle class="cls-3" cx="114" cy="960.5" r="8.5"/><circle class="cls-3" cx="394" cy="874.5" r="8.5"/><circle class="cls-3" cx="959" cy="950.5" r="8.5"/><circle class="cls-3" cx="881" cy="679.5" r="8.5"/><circle class="cls-3" cx="740" cy="537.5" r="8.5"/><circle class="cls-3" cx="815" cy="340.5" r="8.5"/><circle class="cls-3" cx="905" cy="98.5" r="8.5"/><circle class="cls-3" cx="503" cy="112.5" r="8.5"/><circle class="cls-3" cx="77" cy="75.5" r="8.5"/><circle class="cls-3" cx="104" cy="536.5" r="8.5"/><circle class="cls-3" cx="889.5" cy="159" r="3.5"/><circle class="cls-3" cx="386.5" cy="130" r="3.5"/><circle class="cls-3" cx="278.5" cy="972" r="3.5"/><line class="cls-2" x1="897" y1="350.5" x2="886" y2="350.5"/><line class="cls-2" x1="925" y1="350.5" x2="914" y2="350.5"/><line class="cls-2" x1="906" y1="359.5" x2="906" y2="370.5"/><line class="cls-2" x1="906" y1="331.5" x2="906" y2="342.5"/><line class="cls-2" x1="739" y1="619.5" x2="728" y2="619.5"/><line class="cls-2" x1="767" y1="619.5" x2="756" y2="619.5"/><line class="cls-2" x1="748" y1="628.5" x2="748" y2="639.5"/><line class="cls-2" x1="748" y1="600.5" x2="748" y2="611.5"/><line class="cls-2" x1="155" y1="722.5" x2="144" y2="722.5"/><line class="cls-2" x1="183" y1="722.5" x2="172" y2="722.5"/><line class="cls-2" x1="164" y1="731.5" x2="164" y2="742.5"/><line class="cls-2" x1="164" y1="703.5" x2="164" y2="714.5"/></g></g></svg>