<svg xmlns="http://www.w3.org/2000/svg" viewBox="0 0 860 915">
<defs>
<style>
    .shootb {fill:none;
                stroke:#9f86db;
                stroke-linecap:round;
                stroke-miterlimit:10;
                stroke-width:3px;}
    
    .dotb {fill:#9f86db;}
</style>
</defs>
<title>starb</title>
    <g id="Layer_2" data-name="Layer 2">
    <g id="starb">
        <line class="shootb" x1="227.5" y1="843.5" x2="171" y2="900"/>
        <line class="shootb" x1="336.5" y1="1.5" x2="280" y2="58"/>
        <line class="shootb" x1="838.5" y1="30.5" x2="782" y2="87"/>
        <circle class="dotb" cx="8.5" cy="542.5" r="8.5"/>
        <circle class="dotb" cx="35.5" cy="795.5" r="8.5"/>
        <circle class="dotb" cx="638.5" cy="906.5" r="8.5"/>
        <circle class="dotb" cx="851.5" cy="643.5" r="8.5"/>
        <circle class="dotb" cx="740.5" cy="243.5" r="8.5"/>
        <circle class="dotb" cx="699.5" cy="18.5" r="8.5"/>
        <circle class="dotb" cx="212.5" cy="8.5" r="8.5"/>
        <circle class="dotb" cx="46.5" cy="290.5" r="8.5"/>
        <circle class="dotb" cx="626.5" cy="560.5" r="3.5"/>
        <circle class="dotb" cx="784.5" cy="291.5" r="3.5"/>
        <circle class="dotb" cx="42.5" cy="663.5" r="3.5"/>
        <line class="shootb" x1="359.5" y1="858.5" x2="348.5" y2="858.5"/>
        <line class="shootb" x1="387.5" y1="858.5" x2="376.5" y2="858.5"/>
        <line class="shootb" x1="368.5" y1="867.5" x2="368.5" y2="878.5"/>
        <line class="shootb" x1="368.5" y1="839.5" x2="368.5" y2="850.5"/>
        <line class="shootb" x1="79.5" y1="411.5" x2="68.5" y2="411.5"/>
        <line class="shootb" x1="107.5" y1="411.5" x2="96.5" y2="411.5"/>
        <line class="shootb" x1="88.5" y1="420.5" x2="88.5" y2="431.5"/>
        <line class="shootb" x1="88.5" y1="392.5" x2="88.5" y2="403.5"/>
        <line class="shootb" x1="617.5" y1="142.5" x2="606.5" y2="142.5"/>
        <line class="shootb" x1="645.5" y1="142.5" x2="634.5" y2="142.5"/>
        <line class="shootb" x1="626.5" y1="151.5" x2="626.5" y2="162.5"/>
        <line class="shootb" x1="626.5" y1="123.5" x2="626.5" y2="134.5"/>
    </g>
    </g>
</svg>